<svg aria-hidden="true" style="position:absolute;width:0;height:0;overflow:hidden" xmlns="http://www.w3.org/2000/svg"><defs>
<symbol id="icon-down" viewBox="0 0 32 32"><path d="M31.68 8.593 30.077 6.99c-.214-.214-.46-.321-.738-.321s-.523.107-.737.321L16 19.591 3.399 6.99c-.214-.214-.46-.321-.738-.321s-.524.107-.738.321L.32 8.593c-.214.214-.321.46-.321.738s.107.524.321.737L15.262 25.01c.214.214.46.321.738.321s.523-.107.737-.321L31.68 10.068c.214-.214.32-.46.32-.737s-.106-.524-.32-.738z"/></symbol></defs></svg>