<svg aria-hidden="true" style="position:absolute;width:0;height:0;overflow:hidden" xmlns="http://www.w3.org/2000/svg"><defs>
<symbol id="icon-borrower" viewBox="0 0 31 31"><path d="M23.437 1.367a75.612 75.612 0 0 0-16.651 0C3.539 1.73.917 4.287.535 7.553a72.758 72.758 0 0 0 0 16.894c.382 3.266 3.004 5.823 6.251 6.186a75.612 75.612 0 0 0 16.651 0c3.247-.363 5.869-2.921 6.251-6.186a72.758 72.758 0 0 0 0-16.894c-.382-3.266-3.004-5.823-6.251-6.186zM7.082 4.017a72.95 72.95 0 0 1 16.059 0c2.035.227 3.663 1.833 3.898 3.846a70.088 70.088 0 0 1 0 16.275c-.235 2.013-1.864 3.619-3.898 3.846a72.95 72.95 0 0 1-16.059 0c-2.035-.227-3.663-1.833-3.898-3.846a70.088 70.088 0 0 1 0-16.275c.235-2.013 1.864-3.618 3.898-3.846zm12.804 12.979c-.478-.613-1.111-1.002-1.899-1.168.698-.204 1.253-.568 1.667-1.092.426-.523.639-1.181.639-1.972 0-1.072-.394-1.921-1.182-2.547-.775-.626-1.854-.938-3.236-.938H9.751v13.443h6.337c1.421 0 2.526-.326 3.314-.977.801-.664 1.201-1.558 1.201-2.681 0-.779-.239-1.468-.717-2.068zm-4.652-2.279h-2.171v-2.815h2.171c.543 0 .956.121 1.24.364.297.243.446.594.446 1.053s-.149.811-.446 1.053c-.284.23-.698.345-1.24.345zm1.917 3.641c0 1.134-1.088 1.231-1.645 1.231h-2.442v-2.478h2.403c1.124 0 1.684.352 1.684 1.247z"/></symbol>
<symbol id="icon-checkmark" viewBox="0 0 42 32"><path d="M40.097 3.103a2.4 2.4 0 0 1 0 3.394l-22.4 22.4a2.4 2.4 0 0 1-3.394 0l-12.8-12.8a2.4 2.4 0 0 1 3.394-3.394L16 23.806 36.703 3.103a2.4 2.4 0 0 1 3.394 0z"/></symbol>
<symbol id="icon-close" viewBox="0 0 33 33"><path d="M18.484 16.037 31.593 2.669A1.548 1.548 0 0 0 29.384.502L16.295 13.849 2.669.481A1.549 1.549 0 1 0 .501 2.69l13.605 13.347L.501 29.384a1.548 1.548 0 0 0 2.167 2.209l13.626-13.368 13.089 13.347a1.548 1.548 0 0 0 2.209-2.168L18.483 16.036z"/></symbol>
<symbol id="icon-guide" viewBox="0 0 34 32"><path d="M16.297 25.852c.19.114.394.164.592.162.198.003.402-.048.592-.162l1.69-1.01a12.4 12.4 0 0 1 10.955-.875c1.324.528 2.763-.444 2.763-1.865V4.805c0-.857-.524-1.628-1.323-1.947a15.97 15.97 0 0 0-14.11 1.127l-.568.34-.568-.34A15.97 15.97 0 0 0 2.21 2.858 2.095 2.095 0 0 0 .888 4.805v17.297c0 1.421 1.44 2.393 2.764 1.865a12.4 12.4 0 0 1 10.955.875l1.69 1.01zM3.121 4.892a13.735 13.735 0 0 1 12.051 1.001l.6.359v16.691l-.017-.01a14.639 14.639 0 0 0-12.634-1.148V4.892zm14.901 18.041-.017.01V6.252l.6-.359a13.735 13.735 0 0 1 12.051-1.001v16.893a14.638 14.638 0 0 0-12.634 1.148z"/><path d="M12.833 26.455a9.703 9.703 0 0 0-9.749 0l-.153.089c-.532.309-.712.991-.402 1.522s.994.71 1.527.401l.153-.089a7.463 7.463 0 0 1 7.499 0l1.618.941a7.09 7.09 0 0 0 7.125 0l1.618-.941a7.465 7.465 0 0 1 7.5 0l.153.089c.532.31 1.216.13 1.527-.401s.131-1.212-.402-1.522l-.153-.089a9.703 9.703 0 0 0-9.749 0l-1.618.941a4.85 4.85 0 0 1-4.875 0l-1.618-.941z"/></symbol>
<symbol id="icon-lender" viewBox="0 0 32 32"><path d="M24.514 1.367a75.621 75.621 0 0 0-16.652 0c-3.247.363-5.869 2.92-6.251 6.186a72.758 72.758 0 0 0 0 16.894c.382 3.266 3.004 5.823 6.251 6.186a75.621 75.621 0 0 0 16.652 0c3.247-.363 5.869-2.921 6.251-6.186a72.758 72.758 0 0 0 0-16.894c-.382-3.266-3.004-5.823-6.251-6.186zM8.159 4.017a72.95 72.95 0 0 1 16.059 0c2.035.227 3.663 1.833 3.898 3.846a70.088 70.088 0 0 1 0 16.275c-.235 2.013-1.864 3.619-3.898 3.846a72.95 72.95 0 0 1-16.059 0c-2.035-.227-3.663-1.833-3.898-3.846a70.088 70.088 0 0 1 0-16.275c.235-2.013 1.864-3.618 3.898-3.846zm12.453 15.497h-5.298V9.279h-3.549v13.443h8.846v-3.208z"/></symbol>
<symbol id="icon-lock" viewBox="0 0 25 32"><path  fill-rule="evenodd" d="m5.215 13.771-.53-4.699a8.082 8.082 0 0 1 0-1.813l.038-.339C5.129 3.322 8 .476 11.649.053a8.017 8.017 0 0 1 1.845 0c3.649.423 6.52 3.269 6.926 6.867l.038.339a8.082 8.082 0 0 1 0 1.813l-.53 4.699 1.154.091c1.819.143 3.305 1.49 3.6 3.265a34.08 34.08 0 0 1 0 11.176c-.295 1.774-1.781 3.121-3.6 3.264l-2.514.198a76.462 76.462 0 0 1-11.993 0l-2.514-.198c-1.819-.143-3.305-1.49-3.6-3.264a34.08 34.08 0 0 1 0-11.176c.295-1.774 1.78-3.121 3.6-3.265l1.154-.091zm6.729-11.252a5.496 5.496 0 0 1 1.256 0c2.485.288 4.439 2.226 4.716 4.675l.038.339c.047.42.047.844 0 1.265l-.54 4.784a76.32 76.32 0 0 0-9.684 0l-.54-4.784a5.692 5.692 0 0 1 0-1.265l.038-.339c.276-2.449 2.231-4.387 4.715-4.675zm6.424 13.62a74.027 74.027 0 0 0-11.592 0l-2.514.198a1.44 1.44 0 0 0-1.313 1.191 31.62 31.62 0 0 0 0 10.373 1.44 1.44 0 0 0 1.313 1.191l2.514.198c3.858.303 7.734.303 11.592 0l2.514-.198a1.44 1.44 0 0 0 1.313-1.191 31.62 31.62 0 0 0 0-10.373 1.44 1.44 0 0 0-1.313-1.191l-2.514-.198z"/></symbol>
<symbol id="icon-signup" viewBox="2 0 36 32"><path d="M16.688 0a7.282 7.282 0 1 0 0 14.564 7.282 7.282 0 1 0 0-14.564zM8.92 18.448a7.282 7.282 0 0 0-7.282 7.282v2.308a2.984 2.984 0 0 0 2.504 2.945 77.837 77.837 0 0 0 25.092 0 2.985 2.985 0 0 0 2.504-2.945V25.73a7.282 7.282 0 0 0-7.282-7.282h-.662c-.358 0-.714.057-1.055.168l-1.681.549c-2.84.927-5.9.927-8.74 0l-1.681-.549a3.409 3.409 0 0 0-1.055-.168H8.92zM33.193 4.855c.804 0 1.456.652 1.456 1.456v3.398h3.398a1.456 1.456 0 0 1 0 2.912h-3.398v3.398a1.456 1.456 0 0 1-2.912 0v-3.398h-3.398a1.456 1.456 0 0 1 0-2.912h3.398V6.311c0-.804.652-1.456 1.456-1.456z"/></symbol>
<symbol id="icon-menu" viewBox="0 0 32 32"><path d="M2 6h28v6H2zm0 8h28v6H2zm0 8h28v6H2z"/></symbol>
<symbol id="icon-down" viewBox="0 0 32 32"><path d="M31.68 8.593 30.077 6.99c-.214-.214-.46-.321-.738-.321s-.523.107-.737.321L16 19.591 3.399 6.99c-.214-.214-.46-.321-.738-.321s-.524.107-.738.321L.32 8.593c-.214.214-.321.46-.321.738s.107.524.321.737L15.262 25.01c.214.214.46.321.738.321s.523-.107.737-.321L31.68 10.068c.214-.214.32-.46.32-.737s-.106-.524-.32-.738z"/></symbol>
</defs></svg>