<svg aria-hidden="true" style="position: absolute; width: 0; height: 0; overflow: hidden;" version="1.1" xmlns="http://www.w3.org/2000/svg" xmlns:xlink="http://www.w3.org/1999/xlink">
<defs>
<symbol id="icon-borrower" viewBox="0 0 30 32">
<path d="M23.437 1.367c-5.489-0.613-11.162-0.613-16.651 0-3.247 0.363-5.869 2.92-6.251 6.186-0.656 5.612-0.656 11.282 0 16.894 0.382 3.266 3.004 5.823 6.251 6.186 5.489 0.613 11.163 0.613 16.651 0 3.247-0.363 5.869-2.921 6.251-6.186 0.656-5.612 0.656-11.282 0-16.894-0.382-3.266-3.004-5.823-6.251-6.186zM7.082 4.017c5.292-0.591 10.767-0.591 16.059 0 2.035 0.227 3.663 1.833 3.898 3.846 0.632 5.406 0.632 10.868 0 16.275-0.235 2.013-1.864 3.619-3.898 3.846-5.292 0.591-10.767 0.591-16.059 0-2.035-0.227-3.663-1.833-3.898-3.846-0.632-5.406-0.632-10.868 0-16.275 0.235-2.013 1.864-3.618 3.898-3.846zM19.886 16.996c-0.478-0.613-1.111-1.002-1.899-1.168 0.698-0.204 1.253-0.568 1.667-1.092 0.426-0.523 0.639-1.181 0.639-1.972 0-1.072-0.394-1.921-1.182-2.547-0.775-0.626-1.854-0.938-3.236-0.938h-6.124v13.443h6.337c1.421 0 2.526-0.326 3.314-0.977 0.801-0.664 1.201-1.558 1.201-2.681 0-0.779-0.239-1.468-0.717-2.068zM15.234 14.717h-2.171v-2.815h2.171c0.543 0 0.956 0.121 1.24 0.364 0.297 0.243 0.446 0.594 0.446 1.053s-0.149 0.811-0.446 1.053c-0.284 0.23-0.698 0.345-1.24 0.345zM17.151 18.358c0 1.134-1.088 1.231-1.645 1.231h-2.442v-2.478h2.403c1.124 0 1.684 0.352 1.684 1.247z"></path>
</symbol>
<symbol id="icon-checkmark" viewBox="0 0 42 32">
<path d="M40.097 3.103c0.937 0.937 0.937 2.457 0 3.394l-22.4 22.4c-0.937 0.937-2.457 0.937-3.394 0l-12.8-12.8c-0.937-0.937-0.937-2.457 0-3.394s2.457-0.937 3.394 0l11.103 11.103 20.703-20.703c0.937-0.937 2.457-0.937 3.394 0z"></path>
</symbol>
<symbol id="icon-close" viewBox="0 0 32 32">
<path fill="#bec2c6" style="fill: var(--color1, #bec2c6)" d="M18.484 16.037l13.109-13.368c0.564-0.615 0.539-1.567-0.057-2.151s-1.548-0.592-2.152-0.016l-13.089 13.347-13.626-13.368c-0.39-0.41-0.973-0.574-1.519-0.429s-0.971 0.577-1.106 1.127c-0.135 0.549 0.040 1.129 0.457 1.511l13.605 13.347-13.605 13.347c-0.576 0.605-0.568 1.556 0.016 2.152s1.536 0.621 2.151 0.057l13.626-13.368 13.089 13.347c0.605 0.576 1.556 0.568 2.152-0.016s0.621-1.536 0.057-2.152l-13.109-13.368z"></path>
</symbol>
<symbol id="icon-guide" viewBox="0 0 34 32">
<path d="M16.297 25.852c0.19 0.114 0.394 0.164 0.592 0.162 0.198 0.003 0.402-0.048 0.592-0.162l1.69-1.010c3.314-1.982 7.367-2.306 10.955-0.875 1.324 0.528 2.763-0.444 2.763-1.865v-17.297c0-0.857-0.524-1.628-1.323-1.947-4.622-1.843-9.841-1.426-14.11 1.127l-0.568 0.34-0.568-0.34c-4.268-2.553-9.488-2.97-14.11-1.127-0.799 0.318-1.322 1.089-1.322 1.947v17.297c0 1.421 1.44 2.393 2.764 1.865 3.588-1.431 7.641-1.107 10.955 0.875l1.69 1.010zM3.121 4.892c3.954-1.547 8.406-1.179 12.051 1.001l0.6 0.359v16.691l-0.017-0.010c-3.821-2.285-8.473-2.703-12.634-1.148v-16.893zM18.022 22.933l-0.017 0.010v-16.691l0.6-0.359c3.645-2.18 8.097-2.548 12.051-1.001v16.893c-4.161-1.555-8.814-1.137-12.634 1.148z"></path>
<path d="M12.833 26.455c-3.012-1.751-6.737-1.751-9.749 0l-0.153 0.089c-0.532 0.309-0.712 0.991-0.402 1.522s0.994 0.71 1.527 0.401l0.153-0.089c2.317-1.347 5.182-1.347 7.499 0l1.618 0.941c2.201 1.28 4.923 1.28 7.125 0l1.618-0.941c2.317-1.347 5.182-1.347 7.5 0l0.153 0.089c0.532 0.31 1.216 0.13 1.527-0.401s0.131-1.212-0.402-1.522l-0.153-0.089c-3.012-1.751-6.737-1.751-9.749 0l-1.618 0.941c-1.506 0.876-3.369 0.876-4.875 0l-1.618-0.941z"></path>
</symbol>
<symbol id="icon-lender" viewBox="0 0 32 32">
<path d="M24.514 1.367c-5.489-0.613-11.163-0.613-16.652 0-3.247 0.363-5.869 2.92-6.251 6.186-0.656 5.612-0.656 11.282 0 16.894 0.382 3.266 3.004 5.823 6.251 6.186 5.489 0.613 11.163 0.613 16.652 0 3.247-0.363 5.869-2.921 6.251-6.186 0.656-5.612 0.656-11.282 0-16.894-0.382-3.266-3.004-5.823-6.251-6.186zM8.159 4.017c5.292-0.591 10.767-0.591 16.059 0 2.035 0.227 3.663 1.833 3.898 3.846 0.632 5.406 0.632 10.868 0 16.275-0.235 2.013-1.864 3.619-3.898 3.846-5.292 0.591-10.767 0.591-16.059 0-2.035-0.227-3.663-1.833-3.898-3.846-0.632-5.406-0.632-10.868 0-16.275 0.235-2.013 1.864-3.618 3.898-3.846zM20.612 19.514h-5.298v-10.235h-3.549v13.443h8.846v-3.208z"></path>
</symbol>
<symbol id="icon-lock" viewBox="0 0 25 32">
<path fill="#90f9ad" style="fill: var(--color2, #90f9ad)" d="M5.215 13.771l-0.53-4.699c-0.068-0.602-0.068-1.21 0-1.813l0.038-0.339c0.406-3.598 3.277-6.444 6.926-6.867 0.613-0.071 1.232-0.071 1.845 0 3.649 0.423 6.52 3.269 6.926 6.867l0.038 0.339c0.068 0.602 0.068 1.211 0 1.813l-0.53 4.699 1.154 0.091c1.819 0.143 3.305 1.49 3.6 3.265 0.615 3.7 0.615 7.475 0 11.176-0.295 1.774-1.781 3.121-3.6 3.264l-2.514 0.198c-3.991 0.314-8.002 0.314-11.993 0l-2.514-0.198c-1.819-0.143-3.305-1.49-3.6-3.264-0.615-3.701-0.615-7.475 0-11.176 0.295-1.774 1.78-3.121 3.6-3.265l1.154-0.091zM11.944 2.519c0.417-0.048 0.839-0.048 1.256 0 2.485 0.288 4.439 2.226 4.716 4.675l0.038 0.339c0.047 0.42 0.047 0.844 0 1.265l-0.54 4.784c-3.225-0.205-6.46-0.205-9.684 0l-0.54-4.784c-0.047-0.42-0.047-0.844 0-1.265l0.038-0.339c0.276-2.449 2.231-4.387 4.715-4.675zM18.368 16.139c-3.858-0.303-7.734-0.303-11.592 0l-2.514 0.198c-0.664 0.052-1.205 0.544-1.313 1.191-0.571 3.435-0.571 6.938 0 10.373 0.108 0.647 0.649 1.139 1.313 1.191l2.514 0.198c3.858 0.303 7.734 0.303 11.592 0l2.514-0.198c0.664-0.052 1.205-0.544 1.313-1.191 0.571-3.435 0.571-6.938 0-10.373-0.108-0.647-0.649-1.139-1.313-1.191l-2.514-0.198z"></path>
</symbol>
<symbol id="icon-logo-generic" viewBox="0 0 129 32">
<path fill="#666" style="fill: var(--color3, #666)" d="M44.823 16.239v1.727c-0.522-0.288-1.048-0.502-1.577-0.643-0.522-0.147-1.051-0.221-1.587-0.221-1.198 0-2.129 0.382-2.792 1.145-0.663 0.757-0.994 1.821-0.994 3.194s0.331 2.44 0.994 3.204c0.663 0.757 1.593 1.135 2.792 1.135 0.536 0 1.065-0.070 1.587-0.211 0.529-0.147 1.054-0.365 1.577-0.653v1.707c-0.516 0.241-1.051 0.422-1.607 0.542-0.549 0.12-1.135 0.181-1.758 0.181-1.694 0-3.040-0.532-4.037-1.597s-1.496-2.501-1.496-4.308c0-1.834 0.502-3.277 1.506-4.328 1.011-1.051 2.394-1.577 4.148-1.577 0.569 0 1.125 0.060 1.667 0.181 0.542 0.114 1.068 0.288 1.577 0.522z"></path>
<path fill="#666" style="fill: var(--color3, #666)" d="M52.376 17.103c-0.991 0-1.774 0.388-2.35 1.165-0.576 0.77-0.864 1.828-0.864 3.174s0.285 2.407 0.854 3.184c0.576 0.77 1.362 1.155 2.36 1.155 0.984 0 1.764-0.388 2.34-1.165s0.864-1.834 0.864-3.174c0-1.332-0.288-2.387-0.864-3.164-0.576-0.783-1.356-1.175-2.34-1.175zM52.376 15.537c1.607 0 2.869 0.522 3.786 1.567s1.376 2.491 1.376 4.339c0 1.841-0.459 3.287-1.376 4.339-0.917 1.044-2.179 1.567-3.786 1.567-1.614 0-2.879-0.522-3.796-1.567-0.911-1.051-1.366-2.497-1.366-4.339 0-1.848 0.455-3.294 1.366-4.339 0.917-1.044 2.183-1.567 3.796-1.567z"></path>
<path fill="#666" style="fill: var(--color3, #666)" d="M69.348 17.966c0.462-0.83 1.014-1.443 1.657-1.838s1.399-0.593 2.27-0.593c1.172 0 2.075 0.412 2.712 1.235 0.636 0.817 0.954 1.982 0.954 3.495v6.789h-1.858v-6.729c-0-1.078-0.191-1.878-0.572-2.4s-0.964-0.783-1.747-0.783c-0.957 0-1.714 0.318-2.27 0.954s-0.834 1.503-0.834 2.601v6.357h-1.858v-6.729c0-1.085-0.191-1.885-0.572-2.4-0.382-0.522-0.971-0.783-1.768-0.783-0.944 0-1.694 0.321-2.25 0.964-0.556 0.636-0.834 1.5-0.834 2.591v6.357h-1.858v-11.248h1.858v1.747c0.422-0.69 0.927-1.198 1.517-1.527s1.289-0.492 2.099-0.492c0.817 0 1.51 0.208 2.079 0.623 0.576 0.415 1.001 1.018 1.275 1.808z"></path>
<path fill="#666" style="fill: var(--color3, #666)" d="M82.384 25.368v5.965h-1.858v-15.526h1.858v1.707c0.388-0.67 0.877-1.165 1.466-1.486 0.596-0.328 1.306-0.492 2.129-0.492 1.366 0 2.474 0.542 3.324 1.627 0.857 1.085 1.285 2.511 1.285 4.278s-0.428 3.194-1.285 4.278c-0.85 1.085-1.958 1.627-3.324 1.627-0.824 0-1.533-0.161-2.129-0.482-0.589-0.328-1.078-0.827-1.466-1.496zM88.671 21.442c0-1.359-0.281-2.424-0.844-3.194-0.556-0.777-1.322-1.165-2.3-1.165s-1.747 0.388-2.31 1.165c-0.556 0.77-0.834 1.834-0.834 3.194s0.278 2.427 0.834 3.204c0.562 0.77 1.332 1.155 2.31 1.155s1.744-0.385 2.3-1.155c0.562-0.777 0.844-1.845 0.844-3.204z"></path>
<path fill="#666" style="fill: var(--color3, #666)" d="M98.764 21.401c-1.493 0-2.528 0.171-3.103 0.512s-0.864 0.924-0.864 1.747c0 0.656 0.214 1.178 0.643 1.567 0.435 0.382 1.024 0.572 1.768 0.572 1.024 0 1.845-0.362 2.46-1.085 0.623-0.73 0.934-1.697 0.934-2.902v-0.412h-1.838zM102.45 20.638v6.417h-1.848v-1.707c-0.422 0.683-0.947 1.188-1.577 1.517-0.629 0.321-1.399 0.482-2.31 0.482-1.152 0-2.069-0.321-2.752-0.964-0.676-0.649-1.014-1.517-1.014-2.601 0-1.265 0.422-2.219 1.265-2.862 0.85-0.643 2.116-0.964 3.796-0.964h2.591v-0.181c0-0.85-0.281-1.506-0.844-1.968-0.556-0.469-1.339-0.703-2.35-0.703-0.643 0-1.269 0.077-1.878 0.231s-1.195 0.385-1.757 0.693v-1.707c0.676-0.261 1.332-0.455 1.968-0.582 0.636-0.134 1.255-0.201 1.858-0.201 1.627 0 2.842 0.422 3.646 1.265s1.205 2.122 1.205 3.836z"></path>
<path fill="#666" style="fill: var(--color3, #666)" d="M115.656 20.267v6.789h-1.848v-6.729c0-1.065-0.208-1.861-0.623-2.39s-1.038-0.793-1.868-0.793c-0.998 0-1.784 0.318-2.36 0.954s-0.864 1.503-0.864 2.601v6.357h-1.858v-11.248h1.858v1.747c0.442-0.676 0.961-1.182 1.557-1.517 0.603-0.335 1.296-0.502 2.079-0.502 1.292 0 2.27 0.402 2.933 1.205 0.663 0.797 0.994 1.972 0.994 3.525z"></path>
<path fill="#666" style="fill: var(--color3, #666)" d="M124.042 28.1c-0.522 1.339-1.031 2.213-1.527 2.621s-1.158 0.613-1.988 0.613h-1.476v-1.547h1.085c0.509 0 0.904-0.12 1.185-0.362s0.593-0.81 0.934-1.707l0.331-0.844-4.549-11.067h1.958l3.515 8.798 3.515-8.798h1.958l-4.941 12.293z"></path>
<path fill="#666" style="fill: var(--color3, #666)" d="M39.626 9.246c0-0.604-0.125-1.072-0.376-1.404-0.248-0.332-0.596-0.498-1.046-0.498-0.447 0-0.796 0.166-1.046 0.498-0.248 0.332-0.371 0.8-0.371 1.404 0 0.601 0.124 1.067 0.371 1.399 0.251 0.332 0.599 0.498 1.046 0.498 0.45 0 0.799-0.166 1.046-0.498 0.251-0.332 0.376-0.799 0.376-1.399zM40.459 11.211c0 0.863-0.192 1.505-0.575 1.925-0.383 0.423-0.971 0.634-1.762 0.634-0.293 0-0.569-0.023-0.829-0.068-0.26-0.042-0.512-0.109-0.756-0.199v-0.811c0.245 0.133 0.486 0.231 0.725 0.294s0.482 0.095 0.729 0.095c0.546 0 0.956-0.143 1.227-0.43 0.272-0.284 0.408-0.714 0.408-1.291v-0.412c-0.172 0.299-0.392 0.522-0.661 0.67s-0.59 0.222-0.965 0.222c-0.622 0-1.123-0.237-1.504-0.711s-0.571-1.102-0.571-1.884c0-0.785 0.19-1.414 0.571-1.888s0.882-0.711 1.504-0.711c0.374 0 0.696 0.074 0.965 0.222s0.489 0.371 0.661 0.67v-0.77h0.833v4.443z"></path>
<path fill="#666" style="fill: var(--color3, #666)" d="M46.514 9.097v0.408h-3.831c0.036 0.574 0.208 1.011 0.516 1.313 0.311 0.299 0.743 0.448 1.295 0.448 0.32 0 0.63-0.039 0.928-0.118 0.302-0.079 0.601-0.196 0.897-0.353v0.788c-0.299 0.127-0.605 0.223-0.919 0.29s-0.633 0.1-0.956 0.1c-0.809 0-1.451-0.236-1.925-0.706-0.471-0.471-0.706-1.108-0.706-1.911 0-0.83 0.223-1.488 0.67-1.974 0.45-0.489 1.055-0.734 1.816-0.734 0.682 0 1.221 0.22 1.617 0.661 0.399 0.438 0.598 1.034 0.598 1.789zM45.681 8.852c-0.006-0.456-0.134-0.82-0.385-1.091-0.248-0.272-0.577-0.408-0.987-0.408-0.465 0-0.838 0.131-1.119 0.394-0.278 0.263-0.438 0.633-0.48 1.11l2.971-0.005z"></path>
<path fill="#666" style="fill: var(--color3, #666)" d="M52.080 8.779v3.061h-0.833v-3.034c0-0.48-0.094-0.839-0.281-1.078s-0.468-0.358-0.842-0.358c-0.45 0-0.805 0.143-1.064 0.43s-0.389 0.678-0.389 1.173v2.867h-0.838v-5.072h0.838v0.788c0.199-0.305 0.433-0.533 0.702-0.684 0.272-0.151 0.584-0.226 0.937-0.226 0.583 0 1.023 0.181 1.322 0.543 0.299 0.359 0.448 0.889 0.448 1.59z"></path>
<path fill="#666" style="fill: var(--color3, #666)" d="M58.089 9.097v0.408h-3.831c0.036 0.574 0.208 1.011 0.516 1.313 0.311 0.299 0.743 0.448 1.295 0.448 0.32 0 0.63-0.039 0.928-0.118 0.302-0.079 0.601-0.196 0.897-0.353v0.788c-0.299 0.127-0.605 0.223-0.919 0.29s-0.633 0.1-0.956 0.1c-0.809 0-1.451-0.236-1.925-0.706-0.471-0.471-0.706-1.108-0.706-1.911 0-0.83 0.223-1.488 0.67-1.974 0.45-0.489 1.055-0.734 1.816-0.734 0.682 0 1.221 0.22 1.617 0.661 0.399 0.438 0.598 1.034 0.598 1.789zM57.256 8.852c-0.006-0.456-0.134-0.82-0.385-1.091-0.248-0.272-0.577-0.408-0.987-0.408-0.465 0-0.838 0.131-1.119 0.394-0.278 0.263-0.438 0.633-0.48 1.11l2.971-0.005z"></path>
<path fill="#666" style="fill: var(--color3, #666)" d="M62.378 7.547c-0.094-0.054-0.196-0.094-0.308-0.118-0.109-0.027-0.229-0.041-0.362-0.041-0.471 0-0.833 0.154-1.087 0.462-0.251 0.305-0.376 0.744-0.376 1.318v2.672h-0.838v-5.072h0.838v0.788c0.175-0.308 0.403-0.536 0.684-0.684 0.281-0.151 0.622-0.226 1.023-0.226 0.057 0 0.121 0.005 0.19 0.014 0.069 0.006 0.146 0.017 0.231 0.032l0.005 0.856z"></path>
<path fill="#666" style="fill: var(--color3, #666)" d="M63.261 6.769h0.833v5.072h-0.833v-5.072zM63.261 4.794h0.833v1.055h-0.833v-1.055z"></path>
<path fill="#666" style="fill: var(--color3, #666)" d="M69.484 6.963v0.779c-0.236-0.13-0.472-0.226-0.711-0.29-0.236-0.066-0.474-0.1-0.716-0.1-0.54 0-0.96 0.172-1.259 0.516-0.299 0.341-0.448 0.821-0.448 1.44s0.149 1.1 0.448 1.445c0.299 0.341 0.719 0.512 1.259 0.512 0.242 0 0.48-0.032 0.716-0.095 0.239-0.066 0.475-0.165 0.711-0.294v0.77c-0.232 0.109-0.474 0.19-0.725 0.245-0.248 0.054-0.512 0.082-0.793 0.082-0.764 0-1.371-0.24-1.821-0.72s-0.675-1.128-0.675-1.943c0-0.827 0.226-1.478 0.679-1.952 0.456-0.474 1.079-0.711 1.87-0.711 0.257 0 0.507 0.027 0.752 0.082 0.245 0.051 0.482 0.13 0.711 0.236z"></path>
<path fill="#666" style="fill: var(--color3, #666)" d="M73.877 4.794h0.833v7.047h-0.833v-7.047z"></path>
<path fill="#666" style="fill: var(--color3, #666)" d="M78.414 7.353c-0.447 0-0.8 0.175-1.060 0.525-0.26 0.347-0.389 0.824-0.389 1.431s0.128 1.085 0.385 1.436c0.26 0.347 0.614 0.521 1.064 0.521 0.444 0 0.796-0.175 1.055-0.525s0.389-0.827 0.389-1.431c0-0.601-0.13-1.076-0.389-1.426-0.26-0.353-0.611-0.53-1.055-0.53zM78.414 6.646c0.725 0 1.294 0.236 1.707 0.706s0.62 1.123 0.62 1.956c0 0.83-0.207 1.482-0.62 1.956-0.414 0.471-0.983 0.706-1.707 0.706-0.728 0-1.298-0.236-1.712-0.706-0.411-0.474-0.616-1.126-0.616-1.956 0-0.833 0.205-1.485 0.616-1.956 0.414-0.471 0.984-0.706 1.712-0.706z"></path>
<path fill="#666" style="fill: var(--color3, #666)" d="M85.457 9.246c0-0.604-0.125-1.072-0.376-1.404-0.248-0.332-0.596-0.498-1.046-0.498-0.447 0-0.796 0.166-1.046 0.498-0.248 0.332-0.371 0.8-0.371 1.404 0 0.601 0.124 1.067 0.371 1.399 0.251 0.332 0.599 0.498 1.046 0.498 0.45 0 0.799-0.166 1.046-0.498 0.251-0.332 0.376-0.799 0.376-1.399zM86.29 11.211c0 0.863-0.192 1.505-0.575 1.925-0.383 0.423-0.971 0.634-1.762 0.634-0.293 0-0.569-0.023-0.829-0.068-0.26-0.042-0.512-0.109-0.756-0.199v-0.811c0.245 0.133 0.486 0.231 0.725 0.294s0.482 0.095 0.729 0.095c0.546 0 0.956-0.143 1.227-0.43 0.272-0.284 0.408-0.714 0.408-1.291v-0.412c-0.172 0.299-0.392 0.522-0.661 0.67s-0.59 0.222-0.965 0.222c-0.622 0-1.123-0.237-1.504-0.711s-0.571-1.102-0.571-1.884c0-0.785 0.19-1.414 0.571-1.888s0.882-0.711 1.504-0.711c0.374 0 0.696 0.074 0.965 0.222s0.489 0.371 0.661 0.67v-0.77h0.833v4.443z"></path>
<path fill="#666" style="fill: var(--color3, #666)" d="M89.973 7.353c-0.447 0-0.8 0.175-1.060 0.525-0.26 0.347-0.389 0.824-0.389 1.431s0.128 1.085 0.385 1.436c0.26 0.347 0.614 0.521 1.064 0.521 0.444 0 0.796-0.175 1.055-0.525s0.389-0.827 0.389-1.431c0-0.601-0.13-1.076-0.389-1.426-0.26-0.353-0.611-0.53-1.055-0.53zM89.973 6.646c0.725 0 1.294 0.236 1.707 0.706s0.62 1.123 0.62 1.956c0 0.83-0.207 1.482-0.62 1.956-0.414 0.471-0.983 0.706-1.707 0.706-0.728 0-1.298-0.236-1.712-0.706-0.411-0.474-0.616-1.126-0.616-1.956 0-0.833 0.205-1.485 0.616-1.956 0.414-0.471 0.984-0.706 1.712-0.706z"></path>
<path fill="#000" style="fill: var(--color4, #000)" d="M27.316 4.684c6.248 6.248 6.248 16.379 0 22.627s-16.379 6.248-22.627 0-6.248-16.379 0-22.627 16.379-6.248 22.627 0z"></path>
<path fill="#eee" style="fill: var(--color5, #eee)" d="M27.394 13.615c3.805 3.805 3.805 9.973 0 13.777s-9.973 3.805-13.777 0-3.804-9.973 0-13.777 9.973-3.804 13.777 0z"></path>
</symbol>
<symbol id="icon-signup" viewBox="0 0 41 32">
<path d="M16.688-0c-4.022 0-7.282 3.26-7.282 7.282s3.26 7.282 7.282 7.282c4.022 0 7.282-3.26 7.282-7.282s-3.26-7.282-7.282-7.282z"></path>
<path d="M8.92 18.448c-4.022 0-7.282 3.26-7.282 7.282v2.308c0 1.463 1.060 2.709 2.504 2.945 8.309 1.357 16.783 1.357 25.092 0 1.444-0.236 2.504-1.483 2.504-2.945v-2.308c0-4.022-3.26-7.282-7.282-7.282h-0.662c-0.358 0-0.714 0.057-1.055 0.168l-1.681 0.549c-2.84 0.927-5.9 0.927-8.74 0l-1.681-0.549c-0.341-0.111-0.697-0.168-1.055-0.168h-0.662z"></path>
<path d="M33.193 4.855c0.804 0 1.456 0.652 1.456 1.456v3.398h3.398c0.804 0 1.456 0.652 1.456 1.456s-0.652 1.456-1.456 1.456h-3.398v3.398c0 0.804-0.652 1.456-1.456 1.456s-1.456-0.652-1.456-1.456v-3.398h-3.398c-0.804 0-1.456-0.652-1.456-1.456s0.652-1.456 1.456-1.456h3.398v-3.398c0-0.804 0.652-1.456 1.456-1.456z"></path>
</symbol>
<symbol id="icon-menu" viewBox="0 0 32 32">
<path d="M2 6h28v6h-28zM2 14h28v6h-28zM2 22h28v6h-28z"></path>
</symbol>
</defs>
</svg>
